<svg width="582" height="505" viewBox="0 0 582 505" fill="none" xmlns="http://www.w3.org/2000/svg">
<g clip-path="url(#clip0_24_114)">
<path d="M538.861 468.031L554.538 463.059C556.492 454.647 556.363 445.886 554.161 437.536C547.862 451.537 529.384 454.967 518.855 466.141C515.598 469.652 513.173 473.85 511.759 478.425C510.346 483 509.98 487.834 510.69 492.569L507.391 503.755C515.095 503.097 522.564 500.777 529.284 496.955C536.005 493.133 541.817 487.901 546.319 481.617C548.81 478.067 550.844 474.218 552.373 470.16C545.687 469.491 538.861 468.031 538.861 468.031Z" fill="#F2F2F2"/>
<path d="M522.108 447.347L533.923 435.907C531.919 427.507 527.894 419.723 522.198 413.231C522.807 428.571 507.798 439.88 503.359 454.575C502.01 459.17 501.712 464.008 502.488 468.733C503.264 473.458 505.093 477.948 507.84 481.87L509.878 493.352C516.48 489.329 522.13 483.922 526.44 477.505C530.751 471.088 533.618 463.813 534.845 456.182C535.491 451.894 535.594 447.542 535.152 443.228C528.87 445.61 522.108 447.347 522.108 447.347Z" fill="#F2F2F2"/>
<path d="M443.574 33.5303H1.71885C1.25927 33.5206 0.821806 33.3313 0.500221 33.0029C0.178637 32.6745 -0.00146484 32.2333 -0.00146484 31.7737C-0.00146484 31.3142 0.178637 30.8729 0.500221 30.5445C0.821806 30.2162 1.25927 30.0268 1.71885 30.0171H443.574C444.034 30.0268 444.471 30.2162 444.793 30.5445C445.114 30.8729 445.295 31.3142 445.295 31.7737C445.295 32.2333 445.114 32.6745 444.793 33.0029C444.471 33.3313 444.034 33.5206 443.574 33.5303Z" fill="#003A62"/>
<path d="M31.7964 21.0481C37.4837 21.0481 42.0941 16.3364 42.0941 10.5241C42.0941 4.71179 37.4837 0 31.7964 0C26.1092 0 21.4988 4.71179 21.4988 10.5241C21.4988 16.3364 26.1092 21.0481 31.7964 21.0481Z" fill="#003A62"/>
<path d="M67.3702 21.0481C73.0574 21.0481 77.6678 16.3364 77.6678 10.5241C77.6678 4.71179 73.0574 0 67.3702 0C61.6829 0 57.0725 4.71179 57.0725 10.5241C57.0725 16.3364 61.6829 21.0481 67.3702 21.0481Z" fill="#003A62"/>
<path d="M102.944 21.0481C108.631 21.0481 113.242 16.3364 113.242 10.5241C113.242 4.71179 108.631 0 102.944 0C97.2567 0 92.6462 4.71179 92.6462 10.5241C92.6462 16.3364 97.2567 21.0481 102.944 21.0481Z" fill="#003A62"/>
<path d="M422.156 2.6084H396.886C396.385 2.61837 395.908 2.82428 395.558 3.18191C395.207 3.53955 395.01 4.02039 395.01 4.52121C395.01 5.02202 395.207 5.50287 395.558 5.86051C395.908 6.21814 396.385 6.42405 396.886 6.43402H422.156C422.657 6.42405 423.134 6.21814 423.484 5.86051C423.835 5.50287 424.031 5.02202 424.031 4.52121C424.031 4.02039 423.835 3.53955 423.484 3.18191C423.134 2.82428 422.657 2.61837 422.156 2.6084Z" fill="#003A62"/>
<path d="M422.156 9.78857H396.886C396.385 9.79848 395.908 10.0044 395.557 10.362C395.207 10.7197 395.01 11.2005 395.01 11.7014C395.01 12.2022 395.207 12.6831 395.557 13.0408C395.908 13.3984 396.385 13.6043 396.886 13.6142H422.156C422.657 13.6043 423.134 13.3984 423.484 13.0408C423.835 12.6831 424.032 12.2022 424.032 11.7014C424.032 11.2005 423.835 10.7197 423.484 10.362C423.134 10.0044 422.657 9.79848 422.156 9.78857Z" fill="#003A62"/>
<path d="M422.156 16.9595H396.886C396.385 16.9694 395.908 17.1753 395.557 17.5329C395.207 17.8905 395.01 18.3714 395.01 18.8723C395.01 19.3731 395.207 19.854 395.557 20.2117C395.908 20.5693 396.385 20.7752 396.886 20.7851H422.156C422.657 20.7752 423.134 20.5693 423.484 20.2117C423.835 19.854 424.032 19.3731 424.032 18.8723C424.032 18.3714 423.835 17.8905 423.484 17.5329C423.134 17.1753 422.657 16.9694 422.156 16.9595Z" fill="#003A62"/>
<path d="M34.2298 104.9C41.2609 104.9 46.9608 99.2022 46.9608 92.1731C46.9608 85.144 41.2609 79.4458 34.2298 79.4458C27.1986 79.4458 21.4988 85.144 21.4988 92.1731C21.4988 99.2022 27.1986 104.9 34.2298 104.9Z" fill="#E6E7E8"/>
<path d="M358.427 120.356H25.29C24.2846 120.356 23.3203 119.956 22.6094 119.246C21.8984 118.535 21.499 117.571 21.499 116.566C21.499 115.561 21.8984 114.597 22.6094 113.886C23.3203 113.175 24.2846 112.776 25.29 112.776H358.427C359.432 112.776 360.396 113.175 361.107 113.886C361.818 114.597 362.218 115.561 362.218 116.566C362.218 117.571 361.818 118.535 361.107 119.246C360.396 119.956 359.432 120.356 358.427 120.356Z" fill="#E6E7E8"/>
<path d="M271.056 135.332H25.29C24.2845 135.332 23.3202 134.932 22.6092 134.222C21.8982 133.511 21.4988 132.547 21.4988 131.542C21.4988 130.536 21.8982 129.572 22.6092 128.862C23.3202 128.151 24.2845 127.751 25.29 127.751H271.056C272.061 127.751 273.025 128.151 273.736 128.862C274.447 129.572 274.847 130.536 274.847 131.542C274.847 132.547 274.447 133.511 273.736 134.222C273.025 134.932 272.061 135.332 271.056 135.332Z" fill="#E6E7E8"/>
<path d="M34.2298 303.554C41.2609 303.554 46.9608 297.856 46.9608 290.827C46.9608 283.798 41.2609 278.1 34.2298 278.1C27.1986 278.1 21.4988 283.798 21.4988 290.827C21.4988 297.856 27.1986 303.554 34.2298 303.554Z" fill="#E6E7E8"/>
<path d="M358.427 319.01H25.29C24.7917 319.01 24.298 318.913 23.8374 318.723C23.3767 318.533 22.9581 318.254 22.6054 317.902C22.2528 317.55 21.973 317.132 21.7821 316.671C21.5912 316.211 21.4929 315.718 21.4929 315.22C21.4929 314.721 21.5912 314.228 21.7821 313.768C21.973 313.308 22.2528 312.89 22.6054 312.538C22.9581 312.186 23.3767 311.907 23.8374 311.716C24.298 311.526 24.7917 311.429 25.29 311.43H358.427C359.483 311.489 360.479 311.94 361.219 312.695C361.96 313.45 362.391 314.455 362.428 315.512C362.397 316.005 362.269 316.487 362.05 316.93C361.832 317.373 361.528 317.769 361.156 318.094C360.784 318.419 360.351 318.667 359.883 318.824C359.415 318.982 358.92 319.044 358.427 319.01Z" fill="#E6E7E8"/>
<path d="M271.056 333.986H25.29C24.2845 333.986 23.3202 333.586 22.6092 332.875C21.8982 332.165 21.4988 331.201 21.4988 330.195C21.4988 329.19 21.8982 328.226 22.6092 327.515C23.3202 326.805 24.2845 326.405 25.29 326.405H271.056C272.061 326.405 273.025 326.805 273.736 327.515C274.447 328.226 274.847 329.19 274.847 330.195C274.847 331.201 274.447 332.165 273.736 332.875C273.025 333.586 272.061 333.986 271.056 333.986Z" fill="#E6E7E8"/>
<path d="M34.2298 196.739C41.2609 196.739 46.9608 191.041 46.9608 184.012C46.9608 176.983 41.2609 171.285 34.2298 171.285C27.1986 171.285 21.4988 176.983 21.4988 184.012C21.4988 191.041 27.1986 196.739 34.2298 196.739Z" fill="#E6E7E8"/>
<path d="M358.427 212.195H25.29C24.2846 212.195 23.3203 211.795 22.6094 211.085C21.8984 210.374 21.499 209.41 21.499 208.405C21.499 207.4 21.8984 206.436 22.6094 205.725C23.3203 205.014 24.2846 204.615 25.29 204.615H358.427C359.432 204.615 360.396 205.014 361.107 205.725C361.818 206.436 362.218 207.4 362.218 208.405C362.218 209.41 361.818 210.374 361.107 211.085C360.396 211.795 359.432 212.195 358.427 212.195Z" fill="#E6E7E8"/>
<path d="M312.035 227.171H25.29C24.2845 227.171 23.3202 226.771 22.6092 226.06C21.8982 225.35 21.4988 224.386 21.4988 223.38C21.4988 222.375 21.8982 221.411 22.6092 220.7C23.3202 219.99 24.2845 219.59 25.29 219.59H312.035C313.041 219.59 314.005 219.99 314.716 220.7C315.427 221.411 315.826 222.375 315.826 223.38C315.826 224.386 315.427 225.35 314.716 226.06C314.005 226.771 313.041 227.171 312.035 227.171Z" fill="#E6E7E8"/>
<path d="M292.573 242.147H25.29C24.2845 242.147 23.3202 241.747 22.6092 241.037C21.8982 240.326 21.4988 239.362 21.4988 238.357C21.4988 237.351 21.8982 236.387 22.6092 235.677C23.3202 234.966 24.2845 234.566 25.29 234.566H292.573C293.578 234.566 294.543 234.966 295.254 235.677C295.965 236.387 296.364 237.351 296.364 238.357C296.364 239.362 295.965 240.326 295.254 241.037C294.543 241.747 293.578 242.147 292.573 242.147Z" fill="#E6E7E8"/>
<path d="M298.103 409.7C350.173 409.7 392.383 367.501 392.383 315.447C392.383 263.393 350.173 221.195 298.103 221.195C246.034 221.195 203.824 263.393 203.824 315.447C203.824 367.501 246.034 409.7 298.103 409.7Z" fill="#3D94D1"/>
<path d="M297.974 348.332C305.412 348.332 311.442 342.304 311.442 334.867C311.442 327.431 305.412 321.403 297.974 321.403C290.535 321.403 284.505 327.431 284.505 334.867C284.505 342.304 290.535 348.332 297.974 348.332Z" fill="#3F3D56"/>
<path d="M297.974 341.082C301.407 341.082 304.19 338.299 304.19 334.867C304.19 331.435 301.407 328.653 297.974 328.653C294.541 328.653 291.758 331.435 291.758 334.867C291.758 338.299 294.541 341.082 297.974 341.082Z" fill="#3D94D1"/>
<path d="M322.975 364.84H273.232C268.306 364.835 263.584 362.876 260.101 359.395C256.618 355.913 254.659 351.192 254.653 346.268V323.467C254.659 318.543 256.618 313.822 260.101 310.34C263.584 306.858 268.306 304.9 273.232 304.894H322.975C327.901 304.9 332.623 306.858 336.106 310.34C339.589 313.822 341.548 318.543 341.554 323.467V346.268C341.548 351.192 339.589 355.913 336.106 359.394C332.623 362.876 327.901 364.835 322.975 364.84ZM273.232 306.839C268.822 306.844 264.594 308.597 261.476 311.715C258.357 314.832 256.603 319.059 256.598 323.467V346.268C256.603 350.676 258.357 354.903 261.476 358.02C264.594 361.137 268.822 362.891 273.232 362.895H322.975C327.385 362.891 331.613 361.137 334.731 358.02C337.849 354.903 339.603 350.676 339.608 346.268V323.467C339.603 319.059 337.849 314.832 334.731 311.715C331.613 308.597 327.385 306.844 322.975 306.839L273.232 306.839Z" fill="white"/>
<path d="M270.286 352.463H314.438C316.73 352.463 318.999 352.012 321.117 351.135C323.234 350.259 325.158 348.973 326.778 347.353C328.399 345.733 329.684 343.81 330.561 341.693C331.438 339.577 331.89 337.308 331.89 335.017V315.936C331.886 313.82 331.496 311.723 330.738 309.747C332.892 311.369 334.64 313.468 335.844 315.88C337.047 318.292 337.674 320.951 337.674 323.647V342.728C337.674 345.019 337.223 347.287 336.346 349.404C335.469 351.521 334.183 353.444 332.563 355.064C330.942 356.684 329.018 357.969 326.901 358.846C324.784 359.723 322.515 360.174 320.223 360.174H276.07C272.532 360.172 269.077 359.094 266.166 357.083C263.255 355.073 261.024 352.225 259.77 348.917C262.792 351.218 266.487 352.464 270.286 352.463Z" fill="#3F3D56"/>
<path d="M405.495 492.531L394.646 492.53L389.484 450.693L405.498 450.694L405.495 492.531Z" fill="#A0616A"/>
<path d="M405.878 503.846L372.514 503.844V503.423C372.514 499.98 373.882 496.678 376.318 494.243C378.753 491.808 382.056 490.441 385.5 490.44H385.501L391.595 485.818L402.966 490.441L405.878 490.441L405.878 503.846Z" fill="#003A62"/>
<path d="M482.263 492.531L493.113 492.53L498.274 450.693L482.261 450.694L482.263 492.531Z" fill="#A0616A"/>
<path d="M481.881 503.846L515.245 503.844V503.423C515.244 499.98 513.876 496.678 511.441 494.243C509.006 491.808 505.703 490.441 502.259 490.44H502.258L496.163 485.818L484.793 490.441L481.88 490.441L481.881 503.846Z" fill="#003A62"/>
<path d="M389.007 419.95C389.167 417.563 390.441 404.361 390.441 404.361L393.493 376.362L398.872 302.146L399.223 297.287L427.397 291.88L446.652 282.651L469.54 289.966L487.361 296.647C487.361 296.647 487.391 299.507 487.529 302.962C487.712 307.484 488.032 313.029 488.795 314.471C490.069 317.018 489.749 330.693 489.749 330.693C489.749 330.693 491.015 358.516 492.61 361.566C494.204 364.617 494.525 370.97 494.044 372.244C493.563 373.518 495.638 406.931 495.638 406.931C495.638 406.931 500.964 466.06 497.623 474.976C494.281 483.891 481.654 478.051 481.654 478.051C481.654 478.051 482.265 475.672 478.603 474.55C474.941 473.429 463.787 389.587 463.787 389.587C463.787 389.587 461.712 372.396 459.805 367.469C457.898 362.543 456.143 348.7 456.143 348.7C456.143 348.7 444.364 325.789 444.211 320.694C444.211 320.694 442.67 315.927 441.213 321.175C439.756 326.422 435.461 338.991 435.461 338.991L431.272 354.428L426.344 377.491L423.155 396.909C423.155 396.909 418.379 422.68 417.616 423.794C416.853 424.907 417.616 448.451 417.616 448.451C417.616 448.451 413.924 468.502 408.705 472.003C403.487 475.504 389.662 472.059 389.662 472.059C389.662 472.059 388.847 422.337 389.007 419.95Z" fill="#003A62"/>
<path d="M401.027 229.599L407.29 248.46L399.562 257.657L402.965 261.159L400.455 266.108L393.909 317.986L429.796 331.592L441.881 316.445L451.409 331.592L492.934 321.449L482.345 255.294V250.969L479.355 242.617V224.938L487.25 172.313L463.684 164.061L452.416 155.146L448.77 167.684L433.245 164.923L432.84 155.503L420.961 166.723L410.959 169.575L398.982 172.313L397.456 176.127L400.507 175.364L400.012 224.977L401.027 229.599Z" fill="#003A62"/>
<path d="M390.3 298.61L396.327 240.287L397.918 216.283L381.048 213.234C381.048 213.234 381.716 230.397 379.506 240.081C377.326 249.637 379.217 297.329 379.352 298.605C378.113 299.712 377.24 301.17 376.847 302.784C376.455 304.399 376.562 306.094 377.155 307.647C377.747 309.199 378.797 310.535 380.166 311.478C381.534 312.42 383.157 312.926 384.819 312.926C386.481 312.927 388.104 312.424 389.474 311.482C390.843 310.541 391.894 309.206 392.488 307.654C393.082 306.102 393.191 304.407 392.8 302.792C392.41 301.177 391.538 299.719 390.3 298.61Z" fill="#A0616A"/>
<path d="M373.845 252.372L378.536 253.341L394.634 256.674L395.526 256.857L397.426 249.306L399.631 246.957L403.827 224.977L404.048 223.833L410.388 210.287L414.774 169.575L398.463 172.504C398.379 172.588 398.303 172.679 398.227 172.771C395.884 175.425 394.214 179.116 391.482 182.831C382.595 194.919 375.775 224.29 376.042 240.383C376.049 240.642 375.782 240.924 375.462 241.214C373.949 242.604 372.963 244.473 372.668 246.506C372.373 248.538 372.789 250.61 373.845 252.372Z" fill="#003A62"/>
<path d="M495.17 298.61L489.143 240.287L487.552 216.283L504.422 213.234C504.422 213.234 503.753 230.397 505.963 240.081C508.144 249.637 506.253 297.329 506.118 298.605C507.357 299.712 508.23 301.17 508.623 302.784C509.015 304.399 508.908 306.094 508.315 307.647C507.722 309.199 506.673 310.535 505.304 311.478C503.935 312.42 502.313 312.926 500.651 312.926C498.989 312.927 497.366 312.424 495.996 311.482C494.627 310.541 493.576 309.206 492.981 307.654C492.387 306.102 492.279 304.407 492.669 302.792C493.06 301.177 493.932 299.719 495.17 298.61Z" fill="#A0616A"/>
<path d="M511.625 252.372L506.933 253.341L490.836 256.674L489.943 256.857L488.044 249.306L485.839 246.957L481.643 224.977L481.422 223.833L475.082 210.287L476.532 169.575L487.007 172.504C487.091 172.588 487.167 172.679 487.243 172.771C489.585 175.425 491.256 179.116 493.987 182.831C502.875 194.919 509.695 224.29 509.428 240.383C509.42 240.642 509.687 240.924 510.008 241.214C511.52 242.604 512.507 244.473 512.802 246.506C513.096 248.538 512.681 250.61 511.625 252.372Z" fill="#003A62"/>
<path d="M425.176 175.599L432.84 155.504L452.416 155.146L458.912 175.599L482.261 305.993C482.261 305.993 410.73 325.908 411.456 301.97C412.219 276.801 415.661 243.369 415.661 243.369L425.176 175.599Z" fill="#3D94D1"/>
<path d="M442.19 149.883C454.926 149.883 465.251 139.562 465.251 126.829C465.251 114.097 454.926 103.775 442.19 103.775C429.454 103.775 419.129 114.097 419.129 126.829C419.129 139.562 429.454 149.883 442.19 149.883Z" fill="#A0616A"/>
<path d="M417.77 110.104C421.524 106.019 426.22 98.5412 440.444 95.4011C458.019 91.5209 466.324 107.394 461.892 107.654C474.852 111.577 466.527 138.39 462.811 136.141C462.779 136.119 462.749 136.095 462.719 136.07C460.721 134.599 459.044 132.736 457.79 130.594C456.536 128.453 455.732 126.079 455.427 123.617L454.722 117.272C454.622 122.435 449.343 123.118 443.951 121.216C444.27 120.085 444.879 119.055 445.717 118.23C446.555 117.405 447.594 116.813 448.731 116.512C444.972 119.919 440.197 121.996 435.142 122.423C435.407 121.13 435.945 119.909 436.721 118.842C437.497 117.775 438.492 116.886 439.64 116.235L439.427 116.026C437.322 117.801 434.904 119.169 432.298 120.061C429.326 120.913 425.764 120.452 423.728 118.126C423.179 117.484 422.765 116.739 422.51 115.935C422.95 120.023 420.207 124.69 418.076 123.889C416.303 123.544 415.27 112.824 417.77 110.104Z" fill="#003A62"/>
<path d="M582 503.843C582 503.995 581.971 504.146 581.913 504.286C581.855 504.427 581.77 504.555 581.662 504.662C581.554 504.77 581.427 504.855 581.286 504.913C581.145 504.971 580.995 505.001 580.842 505H308.226C307.919 505 307.625 504.878 307.408 504.661C307.191 504.444 307.069 504.15 307.069 503.843C307.069 503.536 307.191 503.242 307.408 503.025C307.625 502.808 307.919 502.686 308.226 502.686H580.842C580.995 502.686 581.145 502.715 581.286 502.773C581.427 502.831 581.554 502.916 581.662 503.024C581.77 503.131 581.855 503.259 581.913 503.4C581.971 503.54 582 503.691 582 503.843Z" fill="#CCCCCC"/>
<path d="M298.869 264.343C289.648 264.343 281.542 268.516 276.953 274.781C281.859 271.211 287.782 269.311 293.85 269.36C308.13 269.36 319.747 279.36 319.747 291.652V301.869H324.766V286.634C324.766 274.343 313.149 264.343 298.869 264.343Z" fill="#3F3D56"/>
<path d="M328.215 307.098H267.992V289.384C267.992 275.092 281.5 263.465 298.103 263.465C314.707 263.465 328.215 275.092 328.215 289.384V307.098ZM269.937 305.153H326.269V289.384C326.269 276.164 313.634 265.41 298.103 265.41C282.572 265.41 269.937 276.164 269.937 289.384V305.153Z" fill="white"/>
<path d="M313.527 300.335H282.68C281.292 300.334 279.962 299.782 278.981 298.801C277.999 297.82 277.448 296.49 277.446 295.102V288.053C277.446 278.224 286.713 270.228 298.103 270.228C309.494 270.228 318.761 278.224 318.761 288.053V295.102C318.759 296.49 318.207 297.82 317.226 298.801C316.245 299.782 314.914 300.334 313.527 300.335ZM298.103 272.173C287.785 272.173 279.391 279.296 279.391 288.053V295.102C279.392 295.974 279.739 296.81 280.355 297.426C280.972 298.043 281.808 298.39 282.68 298.391H313.527C314.399 298.39 315.235 298.043 315.851 297.426C316.468 296.81 316.815 295.974 316.815 295.102V288.053C316.815 279.296 308.421 272.173 298.103 272.173Z" fill="white"/>
</g>
<defs>
<clipPath id="clip0_24_114">
<rect width="582" height="505" fill="white"/>
</clipPath>
</defs>
</svg>
