<svg width="723" height="480" viewBox="0 0 723 480" fill="none" xmlns="http://www.w3.org/2000/svg">
<path d="M366.266 134.909C359.819 124.249 352.18 112.867 340.217 109.386C326.363 105.355 312.131 113.363 300.059 121.265C263.957 144.897 229.19 170.508 195.918 197.98L195.954 198.394C221.858 196.608 247.762 194.822 273.666 193.036C292.381 191.746 311.74 190.277 328.279 181.425C334.555 178.066 340.673 173.579 347.785 173.267C356.621 172.878 364.325 179.048 370.38 185.494C406.194 223.625 416.558 281.935 456.738 315.435C431.402 252.963 401.15 192.598 366.266 134.909Z" fill="#F2F2F2"/>
<path d="M586.412 458.324C582.451 453.323 580.833 452.152 576.926 447.106C545.117 405.973 515.218 363.45 487.231 319.538C468.221 289.714 450.153 259.318 433.029 228.349C424.876 213.626 416.947 198.788 409.241 183.834C403.261 172.239 397.415 160.574 391.703 148.841C390.069 145.489 388.482 142.123 386.902 138.748C383.18 130.813 379.527 122.839 375.605 115.011C371.136 106.089 365.696 96.7364 357.489 90.7425C353.754 87.9027 349.288 86.1844 344.612 85.7886C337.932 85.3572 331.767 88.1153 325.972 91.1277C283.575 113.231 243.883 140.944 207.982 172.478C171.989 204.082 139.817 239.788 112.122 278.867C111.275 280.076 109.271 278.921 110.126 277.703C113.494 272.942 116.928 268.232 120.429 263.574C163.961 205.688 217.338 155.909 278.119 116.513C288.345 109.888 298.764 103.573 309.374 97.5684C314.722 94.5406 320.093 91.5514 325.556 88.747C330.912 85.9966 336.599 83.5235 342.717 83.431C363.538 83.1075 374.318 106.683 381.724 122.546C384.051 127.538 386.406 132.515 388.79 137.477C397.798 156.314 407.152 174.979 416.854 193.472C422.841 204.89 428.96 216.241 435.209 227.525C454.659 262.664 475.331 297.093 497.225 330.809C526.23 375.471 555.003 414.925 588.045 456.69C588.955 457.846 587.329 459.495 586.412 458.324Z" fill="#E4E4E4"/>
<path d="M205.924 160.837C204.715 159.488 203.512 158.14 202.295 156.792C192.694 146.175 182.391 135.682 169.206 129.595C162.92 126.602 156.057 125.011 149.094 124.934C141.897 124.957 134.862 126.845 128.212 129.488C125.068 130.743 121.993 132.169 118.965 133.686C115.505 135.428 112.107 137.284 108.724 139.157C102.374 142.67 96.107 146.337 89.9221 150.158C77.6158 157.762 65.6949 165.947 54.1595 174.712C48.1796 179.258 42.3232 183.952 36.5901 188.796C31.2578 193.295 26.0333 197.915 20.9167 202.656C19.8226 203.665 18.1888 202.032 19.283 201.022C20.6315 199.766 21.9955 198.518 23.3594 197.286C27.2123 193.803 31.1269 190.388 35.1032 187.039C42.354 180.922 49.7926 175.041 57.419 169.396C69.2783 160.613 81.5458 152.426 94.2216 144.835C100.556 141.044 106.977 137.413 113.486 133.941C115.451 132.893 117.439 131.868 119.45 130.897C124.014 128.596 128.755 126.666 133.629 125.127C140.533 122.894 147.837 122.177 155.043 123.024C162.001 124.036 168.705 126.354 174.801 129.857C187.746 137.092 197.787 148.278 207.558 159.195C208.545 160.305 206.918 161.946 205.924 160.837Z" fill="#E4E4E4"/>
<path d="M471.175 270.852L502.196 259.508L517.597 253.876C522.614 252.042 527.618 249.953 532.803 248.64C537.31 247.353 542.094 247.414 546.566 248.815C550.555 250.291 554.205 252.554 557.301 255.469C560.464 258.381 563.407 261.523 566.106 264.87C569.459 268.899 572.763 272.97 576.082 277.028C589.778 293.775 603.385 310.595 616.902 327.488C630.419 344.38 643.846 361.344 657.182 378.38C670.551 395.457 683.828 412.606 697.013 429.826C698.628 431.936 700.242 434.046 701.855 436.158C702.745 437.324 704.754 436.174 703.851 434.991C690.568 417.598 677.194 400.276 663.726 383.025C650.226 365.733 636.632 348.514 622.945 331.368C609.258 314.223 595.478 297.152 581.607 280.155C578.151 275.921 574.689 271.691 571.222 267.466C568.297 263.902 565.405 260.3 562.197 256.983C556.309 250.894 548.952 245.513 540.146 245.367C534.968 245.281 529.957 246.924 525.146 248.664C519.96 250.54 514.787 252.45 509.607 254.345L478.37 265.768L470.56 268.624C469.174 269.13 469.773 271.365 471.175 270.852L471.175 270.852Z" fill="#E4E4E4"/>
<path d="M165.124 142.954C149.36 134.854 129.172 136.44 114.686 146.561C142.317 151.327 169.646 157.704 196.532 165.66C185.367 159.118 176.634 148.869 165.124 142.954Z" fill="#F2F2F2"/>
<path d="M114.53 146.533L111.496 148.999C112.522 148.136 113.589 147.326 114.686 146.561C114.634 146.552 114.582 146.542 114.53 146.533Z" fill="#F2F2F2"/>
<path d="M556.133 270.966C553.08 267.249 549.778 263.358 545.211 261.849L540.946 262.017C573.407 319.366 617.248 369.477 669.778 409.274C631.896 363.172 594.015 317.069 556.133 270.966Z" fill="#F2F2F2"/>
<path d="M290.963 240.308C292.936 247.476 297.382 253.716 303.513 257.922C305.884 259.536 308.689 261.084 309.5 263.834C309.926 265.587 309.663 267.437 308.765 269.002C307.869 270.548 306.778 271.971 305.52 273.239L305.405 273.67C299.522 270.184 293.926 265.775 290.676 259.76C287.426 253.744 286.973 245.86 290.963 240.308" fill="#F2F2F2"/>
<path d="M486.815 410.912C488.789 418.08 493.234 424.319 499.366 428.526C501.736 430.139 504.541 431.687 505.352 434.438C505.779 436.191 505.516 438.041 504.618 439.606C503.721 441.151 502.631 442.575 501.372 443.843L501.257 444.273C495.375 440.788 489.778 436.379 486.529 430.364C483.279 424.348 482.825 416.464 486.815 410.912" fill="#F2F2F2"/>
<path d="M95.9506 399.146C97.9239 406.314 102.37 412.553 108.501 416.76C110.872 418.374 113.676 419.922 114.487 422.672C114.914 424.425 114.651 426.275 113.753 427.84C112.857 429.385 111.766 430.809 110.507 432.077L110.392 432.508C104.51 429.022 98.9133 424.613 95.6638 418.598C92.4143 412.582 91.9607 404.698 95.9506 399.146" fill="#F2F2F2"/>
<path d="M545.739 85.7221C569.415 85.7221 588.608 66.5325 588.608 42.861C588.608 19.1895 569.415 0 545.739 0C522.063 0 502.87 19.1895 502.87 42.861C502.87 66.5325 522.063 85.7221 545.739 85.7221Z" fill="#3D94D1"/>
<path d="M623.101 9.97598C602.324 7.16821 578.605 18.3958 573.22 38.6538C571.863 35.0519 569.396 31.9746 566.175 29.8665C562.954 27.7583 559.146 26.7285 555.302 26.9258C551.457 27.123 547.775 28.5371 544.787 30.9638C541.799 33.3905 539.659 36.7042 538.678 40.426L541.057 42.1292C585.58 51.7556 631.668 51.5472 676.102 41.5188C661.65 26.3334 643.877 12.7837 623.101 9.97598Z" fill="#F0F0F0"/>
<path d="M534 67.1242C513.224 64.3164 489.505 75.544 484.12 95.802C482.763 92.2001 480.296 89.1228 477.075 87.0147C473.854 84.9065 470.046 83.8767 466.201 84.0739C462.357 84.2712 458.674 85.6853 455.686 88.112C452.698 90.5387 450.559 93.8524 449.578 97.5742L451.956 99.2774C496.479 108.904 542.567 108.695 587.001 98.667C572.55 83.4816 554.777 69.9319 534 67.1242Z" fill="#F0F0F0"/>
<path d="M715.334 77.9299C715.248 77.9301 715.162 77.9168 715.08 77.8905C492.828 7.61679 296.944 16.8063 171.753 36.89C154.716 39.6222 137.633 42.7779 120.98 46.27C116.728 47.1605 112.317 48.115 107.87 49.1089C102.558 50.2915 97.3173 51.5095 92.2919 52.7274C90.1215 53.2412 87.9936 53.7591 85.908 54.281C82.7489 55.0607 79.5434 55.8732 76.1072 56.7661C72.2676 57.7559 68.3664 58.7941 64.5096 59.852C64.4955 59.857 64.4811 59.8611 64.4665 59.8643L64.4669 59.8652C60.1106 61.0543 55.7772 62.2781 51.5867 63.5001C49.3186 64.155 47.1285 64.801 45.0308 65.4386C44.7964 65.5035 44.5888 65.5659 44.3782 65.6299L43.9275 65.7669C43.6665 65.8465 43.4088 65.9245 43.151 65.9984L43.1346 66.0033L43.135 66.0041L42.4529 66.2159C41.6394 66.4622 40.8456 66.7026 40.0649 66.9423C19.4332 73.3012 8.0913 77.8249 7.97925 77.8693C7.87679 77.9103 7.76725 77.9308 7.65687 77.9295C7.54649 77.9283 7.43744 77.9053 7.33595 77.8619C7.23445 77.8185 7.1425 77.7555 7.06534 77.6766C6.98819 77.5977 6.92734 77.5043 6.88627 77.4019C6.84519 77.2994 6.82472 77.1899 6.82598 77.0795C6.82725 76.9692 6.85024 76.8601 6.89365 76.7587C6.93706 76.6572 7.00003 76.5653 7.07898 76.4881C7.15792 76.411 7.25129 76.3501 7.35375 76.3091C7.46662 76.2648 18.864 71.718 39.5708 65.3353C40.3543 65.0948 41.1502 64.8544 41.9661 64.6073L42.5998 64.4103C42.6215 64.4021 42.6433 64.3956 42.6655 64.389C42.922 64.316 43.1781 64.238 43.4383 64.1592L43.8898 64.0221C44.1147 63.954 44.3363 63.8867 44.5633 63.8244C46.6467 63.1908 48.8441 62.5432 51.1179 61.8858C55.3101 60.663 59.6476 59.4393 64.0072 58.2484C64.0208 58.2435 64.0347 58.2402 64.0483 58.2361V58.2353C67.9187 57.1741 71.8342 56.1318 75.6861 55.1387C79.1276 54.2449 82.3392 53.4308 85.5037 52.6495C87.5982 52.1283 89.7302 51.6094 91.8999 51.0926C96.931 49.873 102.183 48.6534 107.503 47.4683C111.958 46.4736 116.376 45.5166 120.635 44.6253C137.314 41.1275 154.424 37.9669 171.487 35.2306C296.857 15.1181 493.022 5.91378 715.587 76.2885C715.778 76.3489 715.942 76.4758 716.048 76.6462C716.153 76.8166 716.195 77.0193 716.164 77.2176C716.134 77.4159 716.033 77.5968 715.881 77.7274C715.729 77.8581 715.535 77.9299 715.334 77.9299Z" fill="#CCCCCC"/>
<path d="M221.06 352.839C220.769 351.988 220.279 351.219 219.631 350.595C219.392 350.373 219.133 350.174 218.858 349.998C216.664 348.536 213.386 348.208 211.301 349.998C211.091 350.18 210.897 350.38 210.721 350.595C210.099 351.36 209.461 352.108 208.805 352.839C207.729 354.066 206.628 355.251 205.476 356.402C205.148 356.722 204.821 357.049 204.484 357.369C204.291 357.562 204.098 357.747 203.904 357.932C203.165 358.638 202.408 359.319 201.643 359.991C201.24 360.352 200.836 360.705 200.424 361.05C199.811 361.562 199.197 362.075 198.575 362.571C198.516 362.613 198.458 362.655 198.399 362.705C198.382 362.714 198.373 362.731 198.357 362.739C198.348 362.739 198.34 362.739 198.331 362.756C198.309 362.765 198.288 362.779 198.273 362.798C198.088 362.924 197.962 363.008 197.869 363.084C197.903 363.067 197.936 363.042 197.97 363.025C197.819 363.142 197.659 363.26 197.508 363.378C196.037 364.462 194.532 365.504 192.994 366.479C189.188 368.914 185.191 371.036 181.041 372.824C180.764 372.933 180.478 373.051 180.192 373.16C169.327 377.61 157.542 379.347 145.855 378.219C144.661 378.127 143.467 378.001 142.274 377.841C140.895 377.64 139.525 377.396 138.163 377.118C132.979 376.084 127.907 374.553 123.016 372.547C116.899 369.746 111.08 366.333 105.65 362.361C104.81 361.764 103.961 361.167 103.112 360.588C104.078 358.218 105.028 355.848 105.953 353.461C106.415 352.309 106.861 351.158 107.298 349.998C110.736 341.065 113.963 332.047 117.057 322.996C120.184 313.827 123.134 304.605 125.908 295.33C126.194 294.388 126.471 293.447 126.74 292.506C128.194 287.606 129.59 282.695 130.926 277.773C131.052 277.294 131.187 276.824 131.304 276.345C131.691 274.933 132.069 273.521 132.439 272.109C133.28 268.924 131.38 265.117 128.035 264.352C126.424 263.939 124.716 264.167 123.27 264.989C121.824 265.81 120.754 267.161 120.285 268.756C119.923 270.117 119.562 271.47 119.192 272.832C117.418 279.412 115.552 285.97 113.594 292.506C113.308 293.447 113.022 294.388 112.736 295.33C108.416 309.566 103.672 323.66 98.5054 337.611C97.8834 339.3 97.2529 340.984 96.6141 342.662C96.3031 343.485 95.9921 344.309 95.6727 345.132C95.0591 346.754 94.4287 348.376 93.7982 349.998C93.4367 350.948 93.0669 351.898 92.6971 352.839C92.4533 353.436 92.218 354.032 91.9826 354.621C89.586 353.76 87.1029 353.163 84.5772 352.839L84.1737 352.789C82.2155 352.553 80.2352 352.57 78.2813 352.839C75.357 353.18 72.5434 354.159 70.0393 355.707C67.5352 357.255 65.4018 359.335 63.7899 361.798C59.7804 368.109 59.8308 377.135 65.4542 382.497C71.2457 388.019 80.0129 387.977 86.8299 384.523C90.4425 382.568 93.4886 379.714 95.6727 376.236C96.5094 374.975 97.2783 373.671 97.9759 372.328C98.1524 372.446 98.3289 372.563 98.5054 372.689C99.1778 373.16 99.8503 373.639 100.514 374.11C104.384 376.912 108.461 379.416 112.711 381.598C121.85 386.14 131.687 389.115 141.812 390.397C142.038 390.422 142.257 390.456 142.484 390.481C143.602 390.624 144.728 390.733 145.855 390.826C162.012 392.043 178.19 388.737 192.574 381.279C193.792 380.648 195 379.987 196.196 379.295C198.054 378.219 199.87 377.076 201.643 375.866C202.61 375.211 203.551 374.547 204.484 373.849C208.562 370.847 212.362 367.486 215.84 363.806C217.16 362.42 218.424 360.988 219.631 359.512C220.773 358.304 221.432 356.719 221.481 355.058C221.474 354.299 221.332 353.548 221.06 352.839ZM81.8705 372.858C82.0471 372.732 82.2236 372.597 82.3917 372.463C82.3413 372.589 82.0975 372.732 81.8706 372.858H81.8705ZM84.5688 370.143C84.3754 370.362 84.1989 370.58 84.0056 370.799C83.4174 371.457 82.7856 372.074 82.1143 372.647C82.0218 372.732 81.921 372.816 81.8201 372.891C81.819 372.891 81.8179 372.891 81.8169 372.892C81.8158 372.892 81.8149 372.893 81.8141 372.894C81.8133 372.894 81.8127 372.895 81.8123 372.896C81.8119 372.897 81.8117 372.898 81.8117 372.9C81.6903 372.954 81.5724 373.016 81.4586 373.085C81.0972 373.303 80.7273 373.505 80.3491 373.69C79.6085 373.962 78.8466 374.173 78.0712 374.32C77.4753 374.363 76.8773 374.369 76.2808 374.337H76.2639C75.8522 374.245 75.4455 374.133 75.0451 374.001C74.8434 373.9 74.6501 373.782 74.4567 373.664C74.3811 373.597 74.3138 373.53 74.2718 373.488C74.1897 373.413 74.1138 373.331 74.0449 373.244C74.0449 373.243 74.0447 373.242 74.0443 373.241C74.0439 373.24 74.0433 373.239 74.0425 373.238C74.0417 373.237 74.0407 373.237 74.0397 373.236C74.0387 373.236 74.0376 373.236 74.0365 373.236C73.944 373.068 73.8431 372.9 73.7507 372.732C73.7459 372.727 73.7429 372.721 73.7423 372.715C73.675 372.505 73.6162 372.286 73.5658 372.068C73.5475 371.684 73.5503 371.3 73.5742 370.916C73.687 370.379 73.8387 369.851 74.0281 369.336C74.1983 368.971 74.392 368.617 74.6081 368.277C74.6249 368.244 74.7089 368.109 74.8014 367.958C74.8098 367.95 74.8098 367.95 74.8098 367.941C74.9359 367.798 75.062 367.647 75.1965 367.513C75.4234 367.26 75.6672 367.042 75.911 366.815C76.385 366.505 76.8761 366.221 77.382 365.966C78.1844 365.681 79.0079 365.459 79.8448 365.302C81.079 365.204 82.3195 365.215 83.5517 365.336C84.7189 365.538 85.8704 365.822 86.9981 366.185C86.3146 367.511 85.5365 368.786 84.6697 370C84.636 370.051 84.6024 370.101 84.5688 370.143ZM75.2216 367.378C75.1476 367.497 75.0602 367.607 74.9611 367.706C75.0278 367.582 75.116 367.471 75.2216 367.378Z" fill="#003A62"/>
<path d="M195.793 267.007C195.717 269.646 195.641 272.285 195.566 274.924C195.406 280.782 195.241 286.642 195.07 292.506C194.893 299.103 194.708 305.697 194.515 312.289C194.423 315.693 194.327 319.096 194.229 322.5C193.969 331.669 193.711 340.835 193.456 349.998C193.431 350.948 193.397 351.889 193.372 352.839C193.246 357.385 193.12 361.932 192.994 366.479C192.851 371.412 192.711 376.345 192.573 381.278C192.472 384.976 192.369 388.677 192.262 392.38C191.506 419.215 190.749 446.049 189.993 472.883C189.961 474.545 189.286 476.13 188.111 477.305C186.936 478.48 185.351 479.154 183.689 479.186C182.021 479.173 180.425 478.505 179.246 477.325C178.066 476.146 177.398 474.551 177.384 472.883C177.805 457.79 178.23 442.696 178.662 427.602C179.04 413.954 179.424 400.305 179.814 386.657C179.94 382.161 180.066 377.662 180.192 373.16C180.385 366.386 180.576 359.613 180.763 352.839C180.789 351.889 180.822 350.948 180.847 349.998C180.864 349.166 180.889 348.343 180.915 347.511C181.285 334.358 181.654 321.203 182.024 308.045C182.176 302.868 182.321 297.688 182.461 292.506C182.629 286.597 182.798 280.692 182.966 274.79C183.041 272.193 183.109 269.604 183.184 267.007C183.216 265.346 183.891 263.761 185.066 262.586C186.241 261.411 187.826 260.736 189.488 260.704C191.156 260.718 192.752 261.386 193.931 262.565C195.111 263.745 195.779 265.34 195.793 267.007Z" fill="#003A62"/>
<path d="M541.627 268.757C535.016 293.784 527.115 318.452 517.955 342.664C515.428 349.342 512.842 356.007 510.078 362.591L510.713 361.086C509.48 364.222 507.904 367.213 506.015 370.004C505.886 370.184 505.756 370.362 505.622 370.539C506.276 369.704 506.4 369.539 505.995 370.044C505.781 370.297 505.57 370.55 505.349 370.796C504.761 371.455 504.13 372.073 503.459 372.648C503.29 372.792 503.119 372.934 502.945 373.072L503.733 372.459C503.642 372.675 502.999 372.961 502.799 373.083C502.152 373.474 501.476 373.816 500.778 374.108L502.284 373.472C501.14 373.933 499.947 374.26 498.727 374.448L500.403 374.222C499.206 374.388 497.992 374.401 496.791 374.261L498.467 374.486C497.484 374.351 496.522 374.092 495.605 373.716L497.11 374.351C496.621 374.138 496.149 373.886 495.699 373.598C495.471 373.449 494.77 372.918 495.687 373.619C496.639 374.346 495.809 373.681 495.613 373.488C495.45 373.326 495.302 373.151 495.143 372.987C494.401 372.227 495.98 374.296 495.476 373.407C495.207 372.961 494.961 372.502 494.738 372.031L495.374 373.537C495.084 372.82 494.879 372.072 494.762 371.308L494.987 372.984C494.867 372.034 494.866 371.073 494.984 370.122L494.759 371.798C494.913 370.737 495.194 369.699 495.595 368.705L494.96 370.211C495.239 369.543 495.571 368.897 495.95 368.279C496.125 367.96 496.33 367.659 496.562 367.379C496.603 367.392 495.496 368.65 496.084 368.015C496.237 367.849 496.381 367.674 496.537 367.509C496.786 367.245 497.052 367.004 497.315 366.755C498.193 365.919 496.086 367.566 497.099 366.905C497.834 366.422 498.606 366.001 499.41 365.645L497.904 366.28C499.25 365.728 500.661 365.349 502.103 365.154L500.427 365.38C502.233 365.172 504.057 365.193 505.858 365.444L504.182 365.219C506.461 365.564 508.69 366.191 510.815 367.084L509.309 366.449C513.84 368.394 517.852 371.281 521.857 374.112C525.726 376.913 529.802 379.415 534.051 381.597C543.19 386.14 553.028 389.116 563.153 390.399C577.674 392.178 592.41 390.282 606.008 384.885C619.605 379.488 631.63 370.764 640.978 359.512C642.118 358.303 642.775 356.717 642.824 355.055C642.812 353.386 642.15 351.787 640.978 350.598C638.665 348.476 634.296 347.876 632.062 350.598C629.945 353.182 627.67 355.632 625.248 357.933C624.117 359.005 622.957 360.044 621.766 361.05C621.086 361.625 620.396 362.189 619.698 362.741C619.367 363.002 618.337 363.697 619.919 362.575C619.556 362.832 619.208 363.113 618.851 363.377C613.557 367.279 607.82 370.541 601.76 373.096L603.266 372.461C596.763 375.188 589.934 377.059 582.948 378.027L584.624 377.801C577.439 378.746 570.16 378.736 562.977 377.769L564.653 377.995C557.471 377.009 550.448 375.096 543.759 372.305L545.265 372.94C538.809 370.084 532.683 366.536 526.994 362.358C524.033 360.166 520.91 358.201 517.652 356.48C513.857 354.543 509.748 353.294 505.516 352.792C497.582 351.859 489.498 354.949 485.136 361.802C481.121 368.109 481.173 377.134 486.795 382.497C492.584 388.021 501.352 387.974 508.175 384.519C514.746 381.191 518.693 374.278 521.469 367.76C527.715 353.09 533.245 338.081 538.398 322.997C543.495 308.073 548.118 292.997 552.266 277.771C552.779 275.885 553.286 273.998 553.785 272.108C554.626 268.924 552.725 265.116 549.381 264.354C547.77 263.94 546.061 264.167 544.614 264.988C543.167 265.81 542.096 267.161 541.626 268.757L541.627 268.757Z" fill="#003A62"/>
<path d="M604.529 267.007L602.259 347.513L600.002 427.599L598.726 472.884C598.74 474.551 599.409 476.146 600.588 477.325C601.767 478.504 603.362 479.173 605.03 479.187C606.692 479.155 608.277 478.48 609.452 477.305C610.628 476.13 611.302 474.546 611.334 472.884L613.603 392.378L615.861 312.292L617.137 267.007C617.123 265.34 616.454 263.745 615.275 262.566C614.096 261.387 612.5 260.718 610.833 260.704C609.171 260.736 607.586 261.411 606.411 262.586C605.235 263.761 604.561 265.346 604.529 267.007Z" fill="#003A62"/>
<path opacity="0.2" d="M386.318 450.407H388.276V361.288H433.943V359.336H388.276V321.732H423.543C423.026 321.075 422.493 320.425 421.946 319.785H388.276V294.948C387.628 294.672 386.976 294.406 386.318 294.155V319.785H347.945V287.962C347.287 287.993 346.64 288.038 345.987 288.093V319.785H315.373V296.042C314.716 296.333 314.068 296.639 313.426 296.961V319.785H287.691V321.732H313.426V359.336H287.691V361.288H313.426V450.407H315.373V361.288C319.394 361.287 323.375 362.078 327.09 363.616C330.804 365.154 334.179 367.409 337.022 370.251C339.865 373.093 342.12 376.468 343.658 380.182C345.197 383.896 345.988 387.876 345.987 391.896V450.407H347.945V361.288H386.318V450.407ZM315.373 359.336V321.732H345.987V359.336H315.373ZM347.945 359.336V321.732H348.713C353.651 321.732 358.542 322.705 363.104 324.595C367.667 326.485 371.813 329.255 375.305 332.747C378.797 336.239 381.567 340.384 383.457 344.946C385.346 349.508 386.319 354.398 386.318 359.336H347.945Z" fill="black"/>
<path d="M374.363 423.686C371.899 434.677 365.995 444.598 357.51 452.008C356.888 452.545 356.266 453.067 355.619 453.579C354.047 453.722 352.486 453.868 350.937 454.016C349.65 454.134 348.381 454.26 347.12 454.378L346.893 454.403L346.734 453.025L346.095 447.444C343.617 443.399 342.081 438.848 341.6 434.129C341.12 429.409 341.708 424.642 343.321 420.181C345.54 414.197 349.558 408.911 353.509 403.667C358.964 396.423 364.268 389.262 364.461 380.43C367.146 383.864 369.377 387.629 371.102 391.632C369.475 392.398 368.013 393.474 366.798 394.801C366.453 395.179 366.109 395.708 366.344 396.162C366.546 396.549 367.05 396.641 367.487 396.692C368.538 396.801 369.597 396.91 370.648 397.019C371.488 397.112 372.329 397.196 373.17 397.288C374.187 400.626 374.876 404.054 375.229 407.525C375.795 412.924 375.503 418.378 374.363 423.686Z" fill="#003A62"/>
<path d="M402.27 401.659C397.311 405.264 394.411 410.449 392.158 416.164C389.849 416.903 387.772 418.229 386.131 420.013C385.787 420.391 385.442 420.921 385.677 421.375C385.879 421.761 386.384 421.854 386.821 421.904C387.871 422.013 388.93 422.123 389.981 422.232C387.728 428.989 385.661 435.981 381.676 441.687C379.027 445.455 375.573 448.587 371.564 450.856C370.471 451.479 369.343 452.037 368.185 452.529C363.915 452.856 359.726 453.207 355.619 453.579C354.047 453.722 352.486 453.868 350.937 454.016C349.651 454.134 348.381 454.26 347.121 454.378C347.112 453.915 347.112 453.453 347.121 452.991C347.386 440.678 351.917 428.838 359.939 419.492C360.318 419.055 360.704 418.626 361.099 418.198C365.163 413.858 369.943 410.247 375.229 407.525C383.559 403.194 392.895 401.169 402.27 401.659Z" fill="#3D94D1"/>
<path d="M352.391 449.705L351.424 452.562L350.937 454.016C349.651 454.134 348.381 454.26 347.12 454.377L346.894 454.403C345.498 454.546 344.111 454.688 342.724 454.831C342.363 454.411 342.001 453.983 341.648 453.545C332.875 442.923 328.663 429.26 329.934 415.542C331.205 401.824 337.855 389.168 348.432 380.337C347.322 386.144 348.617 391.708 350.743 397.229C350.516 397.322 350.298 397.414 350.088 397.515C348.46 398.281 346.999 399.357 345.784 400.683C345.439 401.062 345.095 401.591 345.33 402.045C345.532 402.432 346.036 402.524 346.473 402.574C347.524 402.684 348.583 402.793 349.634 402.902C350.474 402.995 351.315 403.079 352.155 403.171C352.551 403.213 352.946 403.255 353.341 403.297C353.4 403.423 353.45 403.541 353.509 403.667C355.904 408.861 358.485 414.08 359.939 419.492C360.304 420.85 360.59 422.228 360.797 423.618C361.444 428.319 361.024 433.104 359.569 437.62C358.114 442.136 355.661 446.266 352.391 449.705Z" fill="#3D94D1"/>
<path d="M437.001 327.812C429.765 313.699 418.554 301.825 405.368 293.1C392.141 284.386 376.962 279.079 361.186 277.653C359.118 277.465 357.045 277.355 354.967 277.323C352.511 277.286 315.572 287.939 303.198 296.637C290.831 305.23 280.657 316.609 273.499 329.856C266.352 343.176 262.837 358.142 263.306 373.25C263.919 388.449 268.156 403.281 275.665 416.511C283.071 429.697 293.587 440.875 306.299 449.073C319.191 457.298 332.142 479.106 347.364 479.876C362.701 480.651 380.192 460.08 394.18 453.834C408.168 447.536 420.261 437.682 429.253 425.255C437.991 413.077 443.644 398.962 445.727 384.119C447.891 368.922 446.882 353.248 441.692 338.723C440.36 334.991 438.793 331.346 437.001 327.812C435.505 324.866 431.12 323.781 428.376 325.551C426.961 326.421 425.937 327.803 425.516 329.409C425.095 331.015 425.309 332.722 426.114 334.174C426.992 335.904 427.809 337.663 428.564 339.45L427.929 337.944C430.787 344.815 432.73 352.031 433.709 359.407L433.484 357.731C434.525 365.734 434.506 373.839 433.428 381.837L433.653 380.161C432.564 388.158 430.429 395.977 427.303 403.419L427.939 401.913C426.331 405.71 424.457 409.388 422.331 412.921C421.253 414.706 420.11 416.449 418.901 418.15C418.37 418.896 417.823 419.63 417.271 420.361C416.551 421.315 418.252 419.114 417.508 420.051C417.382 420.21 417.256 420.37 417.128 420.529C416.747 421.006 416.36 421.479 415.967 421.947C413.346 425.073 410.486 427.991 407.413 430.674C406.647 431.342 405.869 431.995 405.078 432.633C404.684 432.951 404.295 433.282 403.884 433.578C403.899 433.567 405.211 432.57 404.435 433.149C404.191 433.331 403.948 433.515 403.704 433.697C402.073 434.904 400.399 436.051 398.682 437.135C394.728 439.626 390.581 441.794 386.279 443.618L387.785 442.982C380.364 446.106 372.565 448.239 364.588 449.329L366.264 449.104C358.291 450.181 350.21 450.195 342.233 449.146L343.909 449.371C336.659 448.398 329.567 446.481 322.814 443.669L324.32 444.305C320.409 442.654 316.638 440.689 313.043 438.43C311.264 437.309 309.532 436.119 307.845 434.86C307.605 434.68 307.366 434.498 307.127 434.317C306.357 433.737 307.679 434.746 307.69 434.753C307.243 434.432 306.812 434.088 306.4 433.723C305.585 433.06 304.784 432.382 303.995 431.688C300.838 428.908 297.89 425.9 295.174 422.688C294.495 421.884 293.829 421.069 293.179 420.242C292.897 419.883 292.383 419.157 293.519 420.686C293.369 420.485 293.214 420.288 293.063 420.088C292.701 419.607 292.344 419.123 291.991 418.635C290.757 416.928 289.583 415.178 288.471 413.386C285.957 409.331 283.764 405.086 281.91 400.689L282.545 402.195C279.512 394.979 277.438 387.396 276.375 379.641L276.6 381.316C275.642 374.168 275.628 366.924 276.56 359.772L276.335 361.447C277.289 354.521 279.153 347.751 281.878 341.312L281.242 342.817C282.956 338.786 284.978 334.893 287.29 331.172C288.448 329.31 289.674 327.494 290.97 325.723C291.264 325.32 291.562 324.92 291.863 324.523C292.135 324.163 292.884 323.268 291.606 324.849C291.732 324.694 291.852 324.534 291.976 324.378C292.687 323.477 293.415 322.591 294.161 321.718C296.983 318.415 300.041 315.319 303.309 312.456C304.135 311.732 304.974 311.024 305.826 310.331C306.213 310.016 306.603 309.704 306.996 309.395C307.152 309.272 307.311 309.151 307.468 309.027C305.789 310.363 307.001 309.39 307.382 309.105C309.138 307.789 310.942 306.539 312.792 305.356C316.904 302.726 321.231 300.447 325.725 298.542L324.219 299.177C330.742 296.439 359.641 289.975 364.897 290.681L363.222 290.455C370.947 291.534 378.498 293.62 385.681 296.66L384.175 296.024C387.816 297.57 391.353 299.346 394.767 301.343C396.472 302.343 398.144 303.397 399.783 304.506C400.558 305.03 401.325 305.567 402.084 306.115C402.464 306.389 402.841 306.666 403.216 306.946C403.424 307.101 403.631 307.259 403.839 307.415C404.713 308.07 402.636 306.467 403.552 307.191C406.616 309.598 409.527 312.196 412.267 314.967C413.612 316.337 414.911 317.751 416.164 319.207C416.807 319.955 417.436 320.713 418.052 321.483C418.359 321.865 419.402 323.249 418.123 321.554C418.436 321.968 418.752 322.38 419.06 322.797C421.716 326.392 424.075 330.197 426.114 334.174C427.621 337.114 431.987 338.21 434.739 336.436C436.154 335.565 437.178 334.183 437.6 332.577C438.021 330.971 437.806 329.264 437.001 327.812Z" fill="#003A62"/>
<path d="M363.544 430.674C362.893 430.704 362.249 430.533 361.698 430.185C361.148 429.837 360.718 429.327 360.466 428.726C360.215 428.126 360.155 427.462 360.293 426.825C360.432 426.189 360.763 425.611 361.241 425.168C361.321 424.85 361.378 424.621 361.459 424.303C361.43 424.234 361.401 424.165 361.372 424.095C358.447 417.122 339.782 436.561 338.975 443.115C338.62 446.012 338.77 448.949 339.418 451.795C333.372 438.609 330.233 424.277 330.213 409.772C330.211 406.132 330.414 402.495 330.818 398.877C331.153 395.912 331.617 392.967 332.211 390.044C335.452 374.183 342.409 359.316 352.512 346.665C358.29 346.987 363.354 346.107 363.843 334.912C363.93 332.92 365.407 331.196 365.733 329.234C365.181 329.306 364.62 329.351 364.069 329.387C363.897 329.396 363.716 329.405 363.544 329.415L363.48 329.417C362.873 329.445 362.272 329.296 361.748 328.99C361.225 328.683 360.801 328.232 360.528 327.69C360.254 327.148 360.144 326.539 360.209 325.936C360.274 325.333 360.512 324.761 360.894 324.29C361.132 323.997 361.371 323.704 361.609 323.411C361.971 322.959 362.342 322.516 362.703 322.064C362.745 322.021 362.784 321.976 362.821 321.928C363.237 321.413 363.653 320.907 364.069 320.391C363.31 319.213 362.288 318.226 361.085 317.507C356.916 315.066 351.165 316.757 348.153 320.527C345.133 324.297 344.564 329.586 345.612 334.297C346.644 338.305 348.35 342.108 350.658 345.544C350.432 345.833 350.197 346.113 349.971 346.403C345.838 351.716 342.237 357.421 339.217 363.436C340.071 356.765 329.625 332.67 325.585 327.567C320.732 321.437 310.782 324.112 309.927 331.883C309.919 331.958 309.91 332.034 309.903 332.109C310.503 332.447 311.09 332.806 311.665 333.186C312.387 333.669 312.946 334.358 313.27 335.163C313.593 335.969 313.666 336.854 313.478 337.701C313.29 338.549 312.851 339.32 312.217 339.914C311.584 340.507 310.785 340.896 309.927 341.028L309.839 341.041C301.807 352.508 327.556 382.352 334.002 375.651C330.968 384.246 329.065 393.2 328.341 402.286C327.931 407.646 327.955 413.031 328.413 418.388L328.386 418.198C326.954 406.531 302.386 389.185 295.212 390.63C291.079 391.462 287.008 391.273 287.636 395.441C287.646 395.507 287.656 395.574 287.666 395.641C288.78 396.094 289.864 396.616 290.913 397.205C291.513 397.543 292.1 397.902 292.675 398.282C293.397 398.765 293.956 399.454 294.28 400.259C294.603 401.065 294.676 401.95 294.488 402.797C294.3 403.645 293.861 404.416 293.227 405.009C292.594 405.603 291.795 405.991 290.937 406.124L290.849 406.137C290.786 406.146 290.732 406.155 290.669 406.164C287.012 418.742 314.127 439.041 330.61 432.582H330.62C332.253 439.68 334.62 446.588 337.682 453.196H362.911C363.002 452.916 363.083 452.627 363.165 452.346C360.829 452.493 358.485 452.353 356.183 451.93C358.055 449.634 359.927 447.319 361.799 445.023C361.841 444.98 361.88 444.935 361.917 444.887C362.866 443.712 363.825 442.546 364.774 441.37L364.775 441.369C364.825 437.766 364.412 434.172 363.544 430.675L363.544 430.674ZM334.653 373.851L334.666 373.834L334.653 373.87V373.851ZM329.064 424.219L328.847 423.731C328.856 423.379 328.856 423.026 328.847 422.664C328.847 422.565 328.829 422.465 328.829 422.366C328.91 422.99 328.983 423.614 329.073 424.237L329.064 424.219Z" fill="#003A62"/>
<path d="M80.0632 378.186C85.1697 378.186 89.3094 374.047 89.3094 368.941C89.3094 363.835 85.1697 359.697 80.0632 359.697C74.9566 359.697 70.8169 363.835 70.8169 368.941C70.8169 374.047 74.9566 378.186 80.0632 378.186Z" fill="#003A62"/>
<path d="M191.018 479.035C196.125 479.035 200.264 474.896 200.264 469.791C200.264 464.685 196.125 460.546 191.018 460.546C185.912 460.546 181.772 464.685 181.772 469.791C181.772 474.896 185.912 479.035 191.018 479.035Z" fill="#003A62"/>
<path d="M612.143 479.035C617.25 479.035 621.39 474.896 621.39 469.791C621.39 464.685 617.25 460.546 612.143 460.546C607.037 460.546 602.897 464.685 602.897 469.791C602.897 474.896 607.037 479.035 612.143 479.035Z" fill="#003A62"/>
<path d="M634.839 361.378C639.946 361.378 644.085 357.239 644.085 352.133C644.085 347.027 639.946 342.888 634.839 342.888C629.732 342.888 625.593 347.027 625.593 352.133C625.593 357.239 629.732 361.378 634.839 361.378Z" fill="#003A62"/>
<path d="M607.941 275.655C613.047 275.655 617.187 271.516 617.187 266.411C617.187 261.305 613.047 257.166 607.941 257.166C602.834 257.166 598.694 261.305 598.694 266.411C598.694 271.516 602.834 275.655 607.941 275.655Z" fill="#003A62"/>
<path d="M222.119 352.133C222.114 354.494 221.201 356.763 219.568 358.47C217.936 360.177 215.71 361.191 213.351 361.303C210.992 361.414 208.68 360.615 206.894 359.07C205.108 357.525 203.984 355.352 203.756 353.002C203.527 350.651 204.211 348.303 205.666 346.443C207.121 344.583 209.236 343.353 211.572 343.008C213.909 342.664 216.288 343.23 218.219 344.591C220.149 345.951 221.483 348.002 221.943 350.318C222.062 350.915 222.121 351.524 222.119 352.133Z" fill="#003A62"/>
<path d="M407.045 302.549C412.151 302.549 416.291 298.41 416.291 293.304C416.291 288.198 412.151 284.06 407.045 284.06C401.938 284.06 397.798 288.198 397.798 293.304C397.798 298.41 401.938 302.549 407.045 302.549Z" fill="#003A62"/>
<path d="M315.423 293.304C315.417 295.665 314.504 297.934 312.872 299.641C311.239 301.348 309.014 302.362 306.654 302.474C304.295 302.585 301.983 301.786 300.197 300.241C298.411 298.696 297.288 296.523 297.059 294.173C296.831 291.822 297.514 289.474 298.969 287.614C300.424 285.754 302.539 284.524 304.875 284.179C307.212 283.834 309.592 284.401 311.522 285.761C313.452 287.122 314.786 289.172 315.246 291.489C315.365 292.086 315.424 292.694 315.423 293.304Z" fill="#003A62"/>
<path d="M196.062 266.411C196.056 268.772 195.143 271.041 193.511 272.748C191.879 274.455 189.653 275.469 187.293 275.581C184.934 275.692 182.622 274.893 180.836 273.348C179.05 271.802 177.927 269.63 177.698 267.28C177.47 264.929 178.154 262.581 179.609 260.721C181.063 258.861 183.178 257.631 185.515 257.286C187.851 256.941 190.231 257.508 192.161 258.868C194.092 260.229 195.425 262.279 195.885 264.596C196.004 265.193 196.063 265.801 196.062 266.411Z" fill="#003A62"/>
<path d="M503.71 381.547C508.817 381.547 512.956 377.409 512.956 372.303C512.956 367.197 508.817 363.058 503.71 363.058C498.604 363.058 494.464 367.197 494.464 372.303C494.464 377.409 498.604 381.547 503.71 381.547Z" fill="#003A62"/>
<path d="M358.292 297.506C365.719 297.506 371.741 291.486 371.741 284.059C371.741 276.633 365.719 270.613 358.292 270.613C350.864 270.613 344.843 276.633 344.843 284.059C344.843 291.486 350.864 297.506 358.292 297.506Z" fill="#003A62"/>
<path d="M721.999 479.742L1.00084 480C0.869411 480 0.73926 479.974 0.617832 479.924C0.496403 479.873 0.386077 479.8 0.29314 479.707C0.200202 479.614 0.126471 479.504 0.076174 479.382C0.0258766 479.261 0 479.131 0 478.999C0 478.868 0.0258766 478.738 0.076174 478.616C0.126471 478.495 0.200202 478.385 0.29314 478.292C0.386077 478.199 0.496403 478.125 0.617832 478.075C0.73926 478.024 0.869411 477.999 1.00084 477.999L721.999 477.74C722.264 477.741 722.518 477.847 722.705 478.034C722.892 478.222 722.997 478.476 722.997 478.741C722.997 479.006 722.892 479.26 722.705 479.447C722.518 479.635 722.264 479.741 721.999 479.742Z" fill="#CACACA"/>
</svg>
