<svg width="771" height="481" viewBox="0 0 771 481" fill="none" xmlns="http://www.w3.org/2000/svg">
<g clip-path="url(#clip0_18_173)">
<path d="M201.5 293.142C282.509 293.142 348.179 227.52 348.179 146.571C348.179 65.622 282.509 0 201.5 0C120.492 0 54.8213 65.622 54.8213 146.571C54.8213 227.52 120.492 293.142 201.5 293.142Z" fill="#F2F2F2"/>
<path d="M0 35.1924C0 88.5207 33.48 131.673 74.8549 131.673L0 35.1924Z" fill="#003A62"/>
<path d="M74.855 131.673C74.855 77.7458 112.217 34.1084 158.389 34.1084L74.855 131.673Z" fill="#3D94D1"/>
<path d="M27.1216 40.0266C27.1216 90.6828 48.4712 131.673 74.8552 131.673L27.1216 40.0266Z" fill="#3D94D1"/>
<path d="M74.855 131.673C74.855 62.766 118.039 7.00708 171.407 7.00708L74.855 131.673Z" fill="#003A62"/>
<path d="M59.1074 132.354C59.1074 132.354 69.7231 132.027 72.9224 129.75C76.1217 127.474 89.2519 124.756 90.0456 128.407C90.8393 132.058 105.999 146.565 94.0139 146.662C82.0289 146.758 66.1661 144.796 62.9729 142.852C59.7798 140.909 59.1074 132.354 59.1074 132.354Z" fill="#A8A8A8"/>
<path opacity="0.2" d="M94.2278 145.391C82.2428 145.487 66.38 143.525 63.1868 141.581C60.7551 140.101 59.786 134.79 59.4618 132.34C59.2373 132.349 59.1074 132.353 59.1074 132.353C59.1074 132.353 59.7798 140.909 62.9729 142.852C66.1661 144.796 82.0289 146.758 94.0139 146.661C97.4735 146.634 98.6686 145.404 98.6029 143.582C98.1223 144.683 96.8028 145.37 94.2278 145.391Z" fill="black"/>
<path d="M136.769 309.615C207.889 309.615 265.543 301.778 265.543 292.109C265.543 282.441 207.889 274.604 136.769 274.604C65.6489 274.604 7.99463 282.441 7.99463 292.109C7.99463 301.778 65.6489 309.615 136.769 309.615Z" fill="#003A62"/>
<path opacity="0.1" d="M136.769 306.807C196.479 306.807 244.884 300.227 244.884 292.11C244.884 283.992 196.479 277.412 136.769 277.412C77.0582 277.412 28.6533 283.992 28.6533 292.11C28.6533 300.227 77.0582 306.807 136.769 306.807Z" fill="#003A62"/>
<path d="M576.117 481C683.748 481 771 469.139 771 454.507C771 439.876 683.748 428.014 576.117 428.014C468.486 428.014 381.233 439.876 381.233 454.507C381.233 469.139 468.486 481 576.117 481Z" fill="#1A3E6F"/>
<path d="M213.896 460.1C278.55 460.1 330.963 452.974 330.963 444.185C330.963 435.396 278.55 428.271 213.896 428.271C149.241 428.271 96.8281 435.396 96.8281 444.185C96.8281 452.974 149.241 460.1 213.896 460.1Z" fill="#1A3E6F"/>
<path d="M318.568 430.767C380.545 446.594 499.678 410.123 512.762 368.835" stroke="#2F2E41" stroke-width="2" stroke-miterlimit="10"/>
<path d="M213.207 178.225C213.207 178.225 302.729 153.452 308.238 233.275C313.747 313.097 234.555 335.805 296.532 351.632" stroke="#2F2E41" stroke-width="2" stroke-miterlimit="10"/>
<path d="M126.716 369.719C126.716 369.719 153.623 362.273 155.279 386.264C156.934 410.255 133.132 417.08 151.76 421.837" stroke="#2F2E41" stroke-width="2" stroke-miterlimit="10"/>
<path d="M536.242 387.58L530.817 422.189C530.817 422.189 504.111 436.367 522.889 436.784C541.667 437.201 630.132 436.784 630.132 436.784C630.132 436.784 647.241 436.784 620.117 421.772L614.692 385.495L536.242 387.58Z" fill="#003A62"/>
<path opacity="0.1" d="M519.111 436.408C523.376 432.616 530.817 428.665 530.817 428.665L536.242 394.056L614.692 394.13L620.117 428.248C626.442 431.749 630.36 434.433 632.653 436.491C636.136 435.697 639.943 432.745 620.117 421.772L614.692 385.495L536.242 387.58L530.817 422.189C530.817 422.189 508.376 434.104 519.111 436.408Z" fill="black"/>
<path d="M739.344 146.356H410.755C403.892 146.356 398.328 151.916 398.328 158.774V379.957C398.328 386.816 403.892 392.375 410.755 392.375H739.344C746.208 392.375 751.771 386.816 751.771 379.957V158.774C751.771 151.916 746.208 146.356 739.344 146.356Z" fill="#003A62"/>
<path d="M739.878 159.491H410.221V343.797H739.878V159.491Z" fill="#F2F2F2"/>
<path d="M575.05 155.739C576.202 155.739 577.136 154.805 577.136 153.654C577.136 152.502 576.202 151.569 575.05 151.569C573.898 151.569 572.963 152.502 572.963 153.654C572.963 154.805 573.898 155.739 575.05 155.739Z" fill="#F2F2F2"/>
<path d="M751.771 358.391V379.958C751.771 381.588 751.45 383.203 750.826 384.71C750.201 386.217 749.286 387.586 748.132 388.739C746.978 389.892 745.608 390.806 744.1 391.43C742.592 392.054 740.976 392.376 739.344 392.375H410.755C409.123 392.376 407.507 392.054 405.999 391.43C404.491 390.806 403.121 389.892 401.967 388.739C400.813 387.586 399.898 386.217 399.274 384.71C398.649 383.203 398.328 381.588 398.328 379.958V358.391H751.771Z" fill="#003A62"/>
<path d="M667.27 459.301V463.471H442.769V460.135L443.078 459.301L448.611 444.289H662.68L667.27 459.301Z" fill="#003A62"/>
<path d="M753.666 455.218C753.257 456.965 751.713 458.809 748.224 460.552C735.706 466.806 710.251 458.884 710.251 458.884C710.251 458.884 690.639 455.548 690.639 446.791C691.189 446.414 691.764 446.073 692.358 445.77C697.621 442.987 715.072 436.121 746.015 446.06C748.294 446.775 750.33 448.109 751.896 449.912C753.15 451.379 754.133 453.239 753.666 455.218Z" fill="#003A62"/>
<path opacity="0.1" d="M753.666 455.218C738.343 461.085 724.685 461.523 710.668 451.795C703.6 446.891 697.178 445.678 692.358 445.77C697.621 442.987 715.072 436.121 746.015 446.06C748.294 446.775 750.33 448.109 751.896 449.912C753.15 451.379 754.133 453.239 753.666 455.218Z" fill="#003458"/>
<path d="M734.454 451.795C737.45 451.795 739.878 451.048 739.878 450.127C739.878 449.206 737.45 448.459 734.454 448.459C731.458 448.459 729.029 449.206 729.029 450.127C729.029 451.048 731.458 451.795 734.454 451.795Z" fill="#F2F2F2"/>
<path d="M575.05 383.41C579.428 383.41 582.978 379.863 582.978 375.488C582.978 371.112 579.428 367.565 575.05 367.565C570.671 367.565 567.121 371.112 567.121 375.488C567.121 379.863 570.671 383.41 575.05 383.41Z" fill="#F2F2F2"/>
<path opacity="0.1" d="M667.27 459.301V463.471H442.769V460.135L443.078 459.301H667.27Z" fill="black"/>
<path d="M218.028 109.412H74.792V275.939H218.028V109.412Z" fill="#003A62"/>
<path d="M232.489 92.897H60.3306V152.076H232.489V92.897Z" fill="#1A3E6F"/>
<path d="M232.489 163.086H60.3306V222.265H232.489V163.086Z" fill="#1A3E6F"/>
<path d="M232.489 233.275H60.3306V292.453H232.489V233.275Z" fill="#1A3E6F"/>
<path opacity="0.4" d="M198.057 103.219H187.039V114.229H198.057V103.219Z" fill="#3D94D1" fill-opacity="0.5"/>
<path opacity="0.8" d="M213.896 103.219H202.877V114.229H213.896V103.219Z" fill="#3D94D1" fill-opacity="0.8"/>
<path d="M229.734 103.219H218.716V114.229H229.734V103.219Z" fill="#3D94D1"/>
<path opacity="0.4" d="M198.057 172.719H187.039V183.729H198.057V172.719Z" fill="#3D94D1" fill-opacity="0.5"/>
<path opacity="0.8" d="M213.896 172.719H202.877V183.729H213.896V172.719Z" fill="#3D94D1" fill-opacity="0.8"/>
<path d="M229.734 172.719H218.716V183.729H229.734V172.719Z" fill="#3D94D1"/>
<path opacity="0.4" d="M198.057 242.22H187.039V253.23H198.057V242.22Z" fill="#3D94D1" fill-opacity="0.5"/>
<path opacity="0.8" d="M213.896 242.22H202.877V253.23H213.896V242.22Z" fill="#3D94D1" fill-opacity="0.8"/>
<path d="M229.734 242.22H218.716V253.23H229.734V242.22Z" fill="#3D94D1"/>
<path d="M218.028 424.574C248.073 424.574 272.43 400.235 272.43 370.212C272.43 340.189 248.073 315.85 218.028 315.85C187.982 315.85 163.625 340.189 163.625 370.212C163.625 400.235 187.982 424.574 218.028 424.574Z" fill="#003A62"/>
<path d="M209.764 412.875H193.237V442.465H209.764V412.875Z" fill="#003A62"/>
<path d="M242.818 412.875H226.291V442.465H242.818V412.875Z" fill="#003A62"/>
<path d="M207.009 447.97C214.616 447.97 220.782 445.659 220.782 442.809C220.782 439.959 214.616 437.648 207.009 437.648C199.403 437.648 193.237 439.959 193.237 442.809C193.237 445.659 199.403 447.97 207.009 447.97Z" fill="#003A62"/>
<path d="M240.064 447.282C247.67 447.282 253.836 444.971 253.836 442.121C253.836 439.271 247.67 436.96 240.064 436.96C232.457 436.96 226.291 439.271 226.291 442.121C226.291 444.971 232.457 447.282 240.064 447.282Z" fill="#003A62"/>
<path d="M219.405 375.029C229.673 375.029 237.998 366.71 237.998 356.449C237.998 346.188 229.673 337.87 219.405 337.87C209.136 337.87 200.812 346.188 200.812 356.449C200.812 366.71 209.136 375.029 219.405 375.029Z" fill="white"/>
<path d="M219.405 362.642C222.828 362.642 225.602 359.87 225.602 356.449C225.602 353.029 222.828 350.256 219.405 350.256C215.982 350.256 213.207 353.029 213.207 356.449C213.207 359.87 215.982 362.642 219.405 362.642Z" fill="#3F3D56"/>
<path d="M165.256 319.657C160.863 299.999 174.905 280.135 196.619 275.29C218.333 270.445 239.497 282.453 243.89 302.112C248.282 321.77 233.892 329.02 212.178 333.865C190.463 338.71 169.649 339.315 165.256 319.657Z" fill="#3D94D1"/>
<path d="M269.052 359.369C282.862 353.463 292.554 345.162 290.698 340.83C288.843 336.497 276.142 337.773 262.332 343.68C248.521 349.587 238.829 357.887 240.685 362.22C242.54 366.552 255.241 365.276 269.052 359.369Z" fill="#003A62"/>
<path d="M167.134 395.84C180.944 389.933 190.636 381.633 188.78 377.3C186.925 372.968 174.224 374.244 160.414 380.151C146.603 386.058 136.911 394.358 138.767 398.691C140.622 403.023 153.323 401.747 167.134 395.84Z" fill="#003A62"/>
<path d="M249.705 386.039C249.705 391.359 235.995 401.865 220.782 401.865C205.569 401.865 191.171 392.047 191.171 386.727C191.171 381.406 205.569 382.598 220.782 382.598C235.995 382.598 249.705 380.718 249.705 386.039Z" fill="white"/>
</g>
<defs>
<clipPath id="clip0_18_173">
<rect width="771" height="481" fill="white"/>
</clipPath>
</defs>
</svg>
